v -1.20342 -0.128737 -2.7602
vn -0.557774 -0.829915 -0.0113896
vt 0.894331 0.211597
v -1.06953 0.36216 -0.912375
vn -0.540291 -0.775442 0.326765
vt 0.931126 0.594126
v -0.384143 -0.0733979 -3.98221
vn -0.292461 -0.834222 -0.467483
vt 0.525449 0.00325169
v -0.260992 -0.668735 -2.99688
vn -0.172595 -0.96401 -0.202226
vt 0.525845 0.186209
v -0.195578 0.160119 -0.258821
vn -0.633453 -0.632883 0.445192
vt 0.600459 0.765573
v -0.147537 -0.6849 -2.08912
vn -0.0577499 -0.983574 0.171017
vt 0.525846 0.373289
v -0.037278 1.17743 0.79515
vn -0.00369856 -0.624885 0.780708
vt 0.525846 1.00534
v -0.0137173 -0.405945 -1.01841
vn -0.00158798 -0.934365 0.356314
vt 0.525846 0.593948
v -0.00042166 0.0333329 -0.120421
vn -0.0545719 -0.771821 0.633494
vt 0.525846 0.791295
v 0.25703 0.160121 -0.25964
vn 0.564611 -0.675603 0.474104
vt 0.427235 0.765573
v 0.65789 -0.149276 -4.18598
vn 0.264747 -0.895266 -0.358339
vt 0.121614 -0.00399156
v 0.80262 -0.345817 -3.06883
vn 0.653893 -0.752553 -0.0780236
vt 0.119225 0.211597
v 0.98901 0.145081 -1.22908
vn 0.55381 -0.800027 0.230761
vt 0.135732 0.594126
v 1.02303 0.128649 -3.04884
vn 0.905894 -0.417948 -0.0683791
vt -0.0854352 0.240232
f 11/11/11 14/14/14 12/12/12
f 11/11/11 4/4/4 3/3/3
f 4/4/4 11/11/11 12/12/12
f 1/1/1 3/3/3 4/4/4
f 14/14/14 13/13/13 12/12/12
f 12/12/12 6/6/6 4/4/4
f 13/13/13 6/6/6 12/12/12
f 8/8/8 6/6/6 13/13/13
f 2/2/2 6/6/6 8/8/8
f 1/1/1 6/6/6 2/2/2
f 1/1/1 4/4/4 6/6/6
f 8/8/8 10/10/10 9/9/9
f 10/10/10 8/8/8 13/13/13
f 8/8/8 5/5/5 2/2/2
f 5/5/5 8/8/8 9/9/9
f 10/10/10 7/7/7 9/9/9
f 7/7/7 5/5/5 9/9/9
