v -1.75979 -0.196829 -3.03109
vn -0.562843 -0.826564 -0.000224159
vt 1.05429 0.25025
v -1.10629 -0.267688 -4.2389
vn -0.303946 -0.854826 -0.420582
vt 0.80509 0.0171273
v -1.09708 -0.648066 -3.13655
vn -0.477414 -0.875536 -0.0742437
vt 0.803339 0.25025
v -1.0858 -0.217476 -1.23111
vn -0.528844 -0.801728 0.27849
vt 0.800341 0.530385
v -0.0950951 -0.177826 -0.0595891
vn -0.797361 -0.448188 0.404158
vt 0.583946 0.74975
v 0.00271739 0.973056 0.681816
vn 0.145696 -0.443678 0.884264
vt 0.511089 0.9995
v 0.00271741 -0.308363 0.0388657
vn -0.0520798 -0.709923 0.702351
vt 0.511089 0.74975
v 0.00271742 -1.06212 -3.23006
vn -0.0138324 -0.977098 -0.212341
vt 0.511089 0.25025
v 0.00271742 -0.917271 -1.1736
vn -0.0156096 -0.943675 0.330506
vt 0.511089 0.530385
v 0.00271742 -0.300209 -4.2389
vn -0.000969887 -0.797988 -0.602672
vt 0.511089 0.018697
v 0.15356 -0.177826 -0.103992
vn 0.72757 -0.522486 0.444579
vt 0.416054 0.74975
v 1.16707 -0.217476 -1.23111
vn 0.515829 -0.807367 0.286495
vt 0.201939 0.530385
v 1.21086 -0.267688 -4.2389
vn 0.311644 -0.851969 -0.420745
vt 0.190432 0.0185827
v 1.21634 -0.648066 -3.13655
vn 0.499376 -0.863301 -0.0730491
vt 0.188852 0.25025
v 1.76747 -0.196829 -3.03109
vn 0.633027 -0.774119 0.0040756
vt -0.0324575 0.25025
f 13/13/13 15/15/15 14/14/14
f 8/8/8 13/13/13 14/14/14
f 13/13/13 8/8/8 10/10/10
f 8/8/8 2/2/2 10/10/10
f 2/2/2 8/8/8 3/3/3
f 1/1/1 2/2/2 3/3/3
f 15/15/15 12/12/12 14/14/14
f 14/14/14 9/9/9 8/8/8
f 9/9/9 14/14/14 12/12/12
f 9/9/9 3/3/3 8/8/8
f 3/3/3 9/9/9 4/4/4
f 4/4/4 1/1/1 3/3/3
f 11/11/11 9/9/9 12/12/12
f 9/9/9 11/11/11 7/7/7
f 5/5/5 9/9/9 7/7/7
f 9/9/9 5/5/5 4/4/4
f 11/11/11 6/6/6 7/7/7
f 6/6/6 5/5/5 7/7/7
