# This file uses centimeters as units for non-parametric coordinates.

mtllib Low Rez Mid CAP.mtl
g default
v -2.011274 2.709776 3.359694
v 1.793359 2.709776 3.359694
v -2.011274 2.709776 -3.359694
v 1.793359 2.709776 -3.359694
v -2.011274 4.462761 3.359694
v 1.793359 4.462761 3.359694
v -2.011274 4.462761 -3.359694
v 1.793359 4.462761 -3.359694
v -1.411850 4.900951 2.755564
v -1.848430 4.681878 3.194497
v -1.848430 4.681878 -3.194497
v -1.411850 4.900951 -2.755564
v 1.192757 4.900951 2.754387
v 1.630515 4.681877 3.194497
v 1.193935 4.900951 -2.755564
v 1.630515 4.681877 -3.194497
vt 0.386690 0.482164
vt 0.748327 0.479830
vt 0.750194 0.769148
vt 0.388557 0.771481
vt 0.397701 0.810760
vt 0.741557 0.808542
vt 0.421744 0.865732
vt 0.718289 0.863734
vt 0.002659 0.823346
vt 0.000000 0.461726
vt 0.289303 0.459599
vt 0.291962 0.821218
vt 0.328703 0.468200
vt 0.331232 0.812038
vt 0.383914 0.491417
vt 0.386095 0.788012
vt -0.000000 0.000000
vt 0.459599 0.000000
vt 0.459599 0.459599
vt -0.000000 0.459599
vt 0.515128 0.069508
vt 0.813476 0.054602
vt 0.831558 0.411956
vt 0.533078 0.426945
vt 0.462512 0.019966
vt 0.861010 0.000000
vt 0.485684 0.481503
vt 0.884180 0.461491
vt 0.750634 0.733743
vt 0.751331 0.468197
vt 0.963773 0.468755
vt 0.963076 0.734301
vt 0.990451 0.723007
vt 0.991089 0.480193
vt 0.778184 1.000000
vt 0.777970 0.734453
vt 0.990413 0.734282
vt 0.990627 0.999828
vt 0.750830 0.988656
vt 0.750634 0.745841
vn 0.000000 -1.000000 0.000000
vn 0.000000 -1.000000 0.000000
vn 0.000000 -1.000000 0.000000
vn 0.000000 -1.000000 0.000000
vn 0.000000 0.000000 1.000000
vn 0.000000 0.000000 1.000000
vn 0.000000 0.000000 1.000000
vn 0.000000 0.000000 1.000000
vn 0.000000 0.000000 -1.000000
vn 0.000000 0.000000 -1.000000
vn 0.000000 0.000000 -1.000000
vn 0.000000 0.000000 -1.000000
vn 1.000000 0.000000 0.000000
vn 1.000000 0.000000 0.000000
vn 1.000000 0.000000 0.000000
vn 1.000000 0.000000 0.000000
vn -1.000000 0.000000 0.000000
vn -1.000000 0.000000 0.000000
vn -1.000000 0.000000 0.000000
vn -1.000000 0.000000 0.000000
vn 0.000086 0.894987 0.446093
vn 0.000086 0.894987 0.446093
vn 0.000086 0.894987 0.446093
vn 0.000086 0.894987 0.446093
vn -0.448495 0.893785 0.000000
vn -0.448495 0.893785 0.000000
vn -0.448495 0.893785 0.000000
vn -0.448495 0.893785 0.000000
vn 0.000000 0.894748 -0.446572
vn 0.000000 0.894748 -0.446572
vn 0.000000 0.894748 -0.446572
vn 0.000000 0.894748 -0.446572
vn 0.448013 0.894027 0.000044
vn 0.448013 0.894027 0.000044
vn 0.448013 0.894027 0.000044
vn 0.448013 0.894027 0.000044
vn -0.802619 0.596492 0.000000
vn -0.802619 0.596492 0.000000
vn -0.802619 0.596492 0.000000
vn -0.802619 0.596492 0.000000
vn 0.000000 0.602002 0.798495
vn 0.000000 0.602002 0.798495
vn 0.000000 0.602002 0.798495
vn 0.000000 0.602002 0.798495
vn 0.802618 0.596493 0.000000
vn 0.802618 0.596493 0.000000
vn 0.802618 0.596493 0.000000
vn 0.802618 0.596493 0.000000
vn 0.000000 0.602002 -0.798495
vn 0.000000 0.602002 -0.798495
vn 0.000000 0.602002 -0.798495
vn 0.000000 0.602002 -0.798495
vn 0.000000 1.000000 0.000000
vn 0.000000 1.000000 0.000000
vn 0.000000 1.000000 0.000000
vn 0.000000 1.000000 0.000000
s off
g pCube1 MIddle_Thing
usemtl initialShadingGroup
f 3/17/1 4/18/2 2/19/3 1/20/4
f 1/29/5 2/30/6 6/31/7 5/32/8
f 7/35/9 8/36/10 4/37/11 3/38/12
f 2/1/13 4/2/14 8/3/15 6/4/16
f 3/9/17 1/10/18 5/11/19 7/12/20
f 9/21/21 10/25/22 14/26/23 13/22/24
f 10/13/25 9/15/26 12/16/27 11/14/28
f 11/27/29 12/24/30 15/23/31 16/28/32
f 13/7/33 14/5/34 16/6/35 15/8/36
f 5/11/37 10/13/38 11/14/39 7/12/40
f 10/33/41 5/32/42 6/31/43 14/34/44
f 14/5/45 6/4/46 8/3/47 16/6/48
f 7/35/49 11/39/50 16/40/51 8/36/52
f 9/21/53 13/22/54 15/23/55 12/24/56
g default
v -2.011274 2.709776 3.359694
v 1.793359 2.709776 3.359694
v -2.011274 2.709776 -3.359694
v 1.793359 2.709776 -3.359694
v -2.011274 4.462761 3.359694
v 1.793359 4.462761 3.359694
v -2.011274 4.462761 -3.359694
v 1.793359 4.462761 -3.359694
v -1.411850 4.900951 2.755564
v -1.848430 4.681878 3.194497
v -1.848430 4.681878 -3.194497
v -1.411850 4.900951 -2.755564
v 1.192757 4.900951 2.754387
v 1.630515 4.681877 3.194497
v 1.193935 4.900951 -2.755564
v 1.630515 4.681877 -3.194497
vt 0.386690 0.482164
vt 0.748327 0.479830
vt 0.750194 0.769148
vt 0.388557 0.771481
vt 0.397701 0.810760
vt 0.741557 0.808542
vt 0.421744 0.865732
vt 0.718289 0.863734
vt 0.002659 0.823346
vt 0.000000 0.461726
vt 0.289303 0.459599
vt 0.291962 0.821218
vt 0.328703 0.468200
vt 0.331232 0.812038
vt 0.383914 0.491417
vt 0.386095 0.788012
vt -0.000000 0.000000
vt 0.459599 0.000000
vt 0.459599 0.459599
vt -0.000000 0.459599
vt 0.515128 0.069508
vt 0.813476 0.054602
vt 0.831558 0.411956
vt 0.533078 0.426945
vt 0.462512 0.019966
vt 0.861010 0.000000
vt 0.485684 0.481503
vt 0.884180 0.461491
vt 0.750634 0.733743
vt 0.751331 0.468197
vt 0.963773 0.468755
vt 0.963076 0.734301
vt 0.990451 0.723007
vt 0.991089 0.480193
vt 0.778184 1.000000
vt 0.777970 0.734453
vt 0.990413 0.734282
vt 0.990627 0.999828
vt 0.750830 0.988656
vt 0.750634 0.745841
vn 0.000000 -1.000000 0.000000
vn 0.000000 -1.000000 0.000000
vn 0.000000 -1.000000 0.000000
vn 0.000000 -1.000000 0.000000
vn 0.000000 0.000000 1.000000
vn 0.000000 0.000000 1.000000
vn 0.000000 0.000000 1.000000
vn 0.000000 0.000000 1.000000
vn 0.000000 0.000000 -1.000000
vn 0.000000 0.000000 -1.000000
vn 0.000000 0.000000 -1.000000
vn 0.000000 0.000000 -1.000000
vn 1.000000 0.000000 0.000000
vn 1.000000 0.000000 0.000000
vn 1.000000 0.000000 0.000000
vn 1.000000 0.000000 0.000000
vn -1.000000 0.000000 0.000000
vn -1.000000 0.000000 0.000000
vn -1.000000 0.000000 0.000000
vn -1.000000 0.000000 0.000000
vn 0.000086 0.894987 0.446093
vn 0.000086 0.894987 0.446093
vn 0.000086 0.894987 0.446093
vn 0.000086 0.894987 0.446093
vn -0.448495 0.893785 0.000000
vn -0.448495 0.893785 0.000000
vn -0.448495 0.893785 0.000000
vn -0.448495 0.893785 0.000000
vn 0.000000 0.894748 -0.446572
vn 0.000000 0.894748 -0.446572
vn 0.000000 0.894748 -0.446572
vn 0.000000 0.894748 -0.446572
vn 0.448013 0.894027 0.000044
vn 0.448013 0.894027 0.000044
vn 0.448013 0.894027 0.000044
vn 0.448013 0.894027 0.000044
vn -0.802619 0.596492 0.000000
vn -0.802619 0.596492 0.000000
vn -0.802619 0.596492 0.000000
vn -0.802619 0.596492 0.000000
vn 0.000000 0.602002 0.798495
vn 0.000000 0.602002 0.798495
vn 0.000000 0.602002 0.798495
vn 0.000000 0.602002 0.798495
vn 0.802618 0.596493 0.000000
vn 0.802618 0.596493 0.000000
vn 0.802618 0.596493 0.000000
vn 0.802618 0.596493 0.000000
vn 0.000000 0.602002 -0.798495
vn 0.000000 0.602002 -0.798495
vn 0.000000 0.602002 -0.798495
vn 0.000000 0.602002 -0.798495
vn 0.000000 1.000000 0.000000
vn 0.000000 1.000000 0.000000
vn 0.000000 1.000000 0.000000
vn 0.000000 1.000000 0.000000
s off
g pCube1 MIddle_Thing
f 19/57/57 20/58/58 18/59/59 17/60/60
f 17/69/61 18/70/62 22/71/63 21/72/64
f 23/75/65 24/76/66 20/77/67 19/78/68
f 18/41/69 20/42/70 24/43/71 22/44/72
f 19/49/73 17/50/74 21/51/75 23/52/76
f 25/61/77 26/65/78 30/66/79 29/62/80
f 26/53/81 25/55/82 28/56/83 27/54/84
f 27/67/85 28/64/86 31/63/87 32/68/88
f 29/47/89 30/45/90 32/46/91 31/48/92
f 21/51/93 26/53/94 27/54/95 23/52/96
f 26/73/97 21/72/98 22/71/99 30/74/100
f 30/45/101 22/44/102 24/43/103 32/46/104
f 23/75/105 27/79/106 32/80/107 24/76/108
f 25/61/109 29/62/110 31/63/111 28/64/112
