v -1.72452 0.71355 -0.995653
vn -0.0027194 0.999995 0.00133148
vt 0.748464 0.044977
v -1.21589 3.91453 -0.701996
vn -0.0027194 0.999995 0.00133148
vt 0.785477 0.246699
v -1.00682 6.64724 -0.581288
vn -0.0027194 0.999995 0.00133148
vt 0.800694 0.418912
v 0 0 0
vn -0.0027194 0.999995 0.00133148
vt 0.873955 8e-006
v 0 0 0
vn 0.0042301 0.999991 -0.000409887
vt 0.873955 8e-006
v 0 0.71355 1.99131
vn 0.00452491 0.999986 -0.00281094
vt 0.748464 0.044977
v 0 3.91453 1.40399
vn 0.00452491 0.999986 -0.00281094
vt 0.785477 0.246699
v 0 4 0
vn -0.0027194 0.999995 0.00133148
vt 0.873957 0.252085
v 0 4 0
vn 0.00431382 0.999991 -0.000603787
vt 0.873957 0.252085
v 0 6.64724 1.16258
vn 0.00452491 0.999986 -0.00281094
vt 0.800694 0.418912
v 0 7.9619 0
vn -0.0027194 0.999995 0.00133148
vt 0.87396 0.50176
v 0 7.9619 0
vn 0.00407081 0.999992 -0.000101764
vt 0.87396 0.50176
v 0.958545 7.41558 -0.553416
vn 0.0027194 0.999995 0.00133148
vt 0.943712 0.467332
v 1.26701 0.19049 -0.731508
vn 0.0027194 0.999995 0.00133148
vt 0.966153 0.012014
v 1.66731 3.69016 -0.962621
vn 0.0027194 0.999995 0.00133148
vt 0.995286 0.232559
f 9/9/9 5/5/5 14/14/14
f 14/14/14 15/15/15 9/9/9
f 13/13/13 12/12/12 9/9/9
f 9/9/9 15/15/15 13/13/13
f 9/9/9 12/12/12 10/10/10
f 10/10/10 7/7/7 9/9/9
f 9/9/9 7/7/7 6/6/6
f 6/6/6 5/5/5 9/9/9
f 3/3/3 2/2/2 8/8/8
f 8/8/8 11/11/11 3/3/3
f 1/1/1 4/4/4 8/8/8
f 8/8/8 2/2/2 1/1/1
