v -2.48133 -2.45147 0.817559
vn -0.44483 -0.42461 0.788564
vt 0.003503 0.510594
v -2.48133 2.4664 0.817559
vn -0.32338 0.323384 0.889296
vt 0.003496 0.995033
v -1.68737 -0.487039 0.409681
vn -0.241934 -0.070563 -0.967724
vt 0.505496 0.681363
v -1.68737 1.55275 0.52966
vn -0.14104 0.211562 -0.967135
vt 0.505482 0.981485
v -0.525515 -1.60426 0.391617
vn -0.0703885 -0.251386 -0.965324
vt 0.676448 0.516981
v 0 0 0
vn -0.0101 -0.0101 -0.999898
vt 0.751855 0.771547
v 0 0 0.0827382
vn 0 0 1
vt 0.215872 0.752078
v 0.71652 -2.51867 0.817559
vn 0.140748 -0.532831 0.834435
vt 0.318511 0.503935
v 1.55275 -1.60426 0.53232
vn 0.211252 -0.150891 -0.965715
vt 0.982225 0.516981
v 1.55275 1.55275 0.524573
vn 0.181237 0.181237 -0.966595
vt 0.982247 0.981508
v 2.49754 -0.682503 0.817559
vn 0.404059 -0.464671 0.787919
vt 0.493892 0.684875
v 2.51867 2.4664 0.817559
vn 0.343292 0.424071 0.838042
vt 0.496036 0.995058
f 1/1/1 7/7/7 2/2/2
f 2/2/2 7/7/7 12/12/12
f 7/7/7 1/1/1 8/8/8
f 7/7/7 11/11/11 12/12/12
f 7/7/7 8/8/8 11/11/11
f 5/5/5 6/6/6 9/9/9
f 6/6/6 10/10/10 9/9/9
f 4/4/4 10/10/10 6/6/6
f 3/3/3 4/4/4 6/6/6
f 5/5/5 3/3/3 6/6/6
