# This file uses centimeters as units for non-parametric coordinates.

mtllib MarigoldFlower_1.mtl
g default
v -2.566320 0.068591 0.000000
v -2.139480 0.036566 1.078100
v -1.933460 -0.005258 -1.404810
v -1.752780 -0.251422 0.249988
v -1.543430 -0.232541 -0.972707
v -0.768845 -0.201950 -1.650970
v -0.754505 0.016491 -2.322310
v -0.735864 -0.227523 1.515460
v -0.662970 0.079107 2.541230
v -0.485875 -0.329812 2.206400
v -0.097482 -0.910090 -2.427940
v -0.218919 -0.460542 -0.290617
v 0.000000 -1.003540 0.000000
v 0.000000 0.130013 0.000000
v 0.027962 -0.822618 0.014818
v 0.394102 -0.653171 2.104927
v 0.515272 -0.160126 -1.784570
v 0.592039 -0.579561 -2.319920
v 1.055880 -0.376655 0.946895
v 1.323070 -0.360164 -0.315233
v 1.725060 0.095598 -2.231490
v 2.046270 0.100378 2.041970
v 2.389940 -0.005258 0.000000
v 0.718867 -0.520051 -1.650559
v -0.337186 -0.685316 -1.436705
vt 0.844700 0.983600
vt 0.757200 0.770500
vt 0.988800 0.801700
vt 0.852600 0.538677
vt 0.625400 0.513058
vt 0.958700 0.628500
vt 0.569400 0.919600
vt 0.502394 0.720093
vt 0.226400 0.754100
vt 0.321200 0.994200
vt 0.067100 0.984800
vt 0.442400 0.899700
vt 0.506390 0.754900
vt 0.308325 0.496388
vt 0.038100 0.551000
vt 0.006116 0.754800
vt 0.474113 0.666676
vt 0.568900 0.436600
vt 0.740747 0.520639
vt 0.753800 0.364600
vt 0.452314 0.638875
vt 0.406459 0.514643
vt 0.500800 0.367800
vt 0.552145 0.532442
vt 0.531640 0.641700
vn -0.150402 0.928101 0.340598
vn 0.009800 0.999950 -0.002200
vn -0.424504 0.889304 0.170100
vn -0.331288 0.939969 -0.081897
vn 0.009800 0.999950 -0.002200
vn 0.301592 0.947175 -0.109097
vn 0.009800 0.999950 -0.002200
vn -0.331288 0.939969 -0.081897
vn -0.477905 0.878401 0.004300
vn 0.009800 0.999950 -0.002200
vn -0.477905 0.878401 0.004300
vn -0.424504 0.889304 0.170100
vn 0.262007 0.928819 0.262007
vn 0.009800 0.999950 -0.002200
vn -0.150402 0.928101 0.340598
vn 0.009800 0.999950 -0.002200
vn 0.262007 0.928819 0.262007
vn 0.395200 0.911900 0.110701
vn 0.009800 0.999950 -0.002200
vn 0.395200 0.911900 0.110701
vn 0.301592 0.947175 -0.109097
vn 0.016399 -0.993852 0.109495
vn -0.401508 -0.851716 -0.336707
vn 0.612914 -0.717013 -0.332008
vn -0.600331 -0.791742 -0.112902
vn -0.401508 -0.851716 -0.336707
vn 0.016399 -0.993852 0.109495
vn -0.590495 -0.802196 0.088300
vn -0.600331 -0.791742 -0.112902
vn 0.016399 -0.993852 0.109495
vn -0.118000 -0.900704 0.418101
vn 0.016399 -0.993852 0.109495
vn 0.404513 -0.858017 0.316505
vn 0.016399 -0.993852 0.109495
vn 0.612914 -0.717013 -0.332008
vn 0.577017 -0.812223 0.085703
vn 0.016399 -0.993852 0.109495
vn 0.577017 -0.812223 0.085703
vn 0.404513 -0.858017 0.316505
vn -0.456118 -0.854430 0.248809
vn 0.016399 -0.993852 0.109495
vn -0.118000 -0.900704 0.418101
vn 0.016399 -0.993852 0.109495
vn -0.456118 -0.854430 0.248809
vn -0.590495 -0.802196 0.088300
vn 0.024800 -0.989498 0.142400
vn 0.084595 -0.945351 0.314888
vn -0.082198 -0.929983 0.358295
vn 0.288092 -0.888974 -0.355990
vn 0.236872 -0.955438 0.176155
vn -0.048798 -0.982767 0.178293
vn 0.236872 -0.955438 0.176155
vn -0.088701 -0.916999 -0.388901
s off
g MarigoldFlower_1:Mesh
usemtl initialShadingGroup
f 8/1/1 14/2/2 4/3/3
f 6/4/4 14/2/5 17/5/6
f 14/2/7 6/4/8 5/6/9
f 14/2/10 5/6/11 4/3/12
f 19/7/13 14/2/14 8/1/15
f 14/2/16 19/7/17 20/8/18
f 14/2/19 20/8/20 17/5/21
f 13/9/22 7/10/23 21/11/24
f 3/12/25 7/10/26 13/9/27
f 1/13/28 3/12/29 13/9/30
f 9/14/31 13/9/32 22/15/33
f 13/9/34 21/11/35 23/16/36
f 13/9/37 23/16/38 22/15/39
f 2/17/40 13/9/41 9/14/42
f 13/9/43 2/17/44 1/13/45
f 15/18/46 16/19/47 10/20/48
f 18/21/49 24/22/50 12/23/51 25/24/52 11/25/53
